{"accessors":[{"bufferView":2,"componentType":5126,"count":2721,"max":[0.46957147121429443,0.006617248058319092,0.24879832565784454],"min":[-0.4755147695541382,-1.0220558643341064,-0.2604182958602905],"type":"VEC3"},{"bufferView":2,"byteOffset":32652,"componentType":5126,"count":2721,"max":[0.9998794198036194,0.9461756348609924,0.9999844431877136],"min":[-0.9998551607131958,-0.334277480840683,-0.9998575448989868],"type":"VEC3"},{"bufferView":3,"componentType":5126,"count":2721,"max":[0.999857485294342,0.9993872046470642,0.9996131658554077,1],"min":[-0.976222574710846,-0.9998828172683716,-0.9994727969169617,-1],"type":"VEC4"},{"bufferView":1,"componentType":5126,"count":2721,"max":[0.9666540026664734,0.9842337369918823],"min":[0.01647961139678955,0.013750970363616943],"type":"VEC2"},{"bufferView":0,"componentType":5125,"count":15360,"max":[2720],"min":[0],"type":"SCALAR"},{"bufferView":2,"byteOffset":65304,"componentType":5126,"count":2721,"max":[0.48097777366638184,0.012159109115600586,0.25774291157722473],"min":[-0.48652851581573486,-1.0344184637069702,-0.26976025104522705],"type":"VEC3"},{"bufferView":2,"byteOffset":97956,"componentType":5126,"count":2721,"max":[0.9996758103370667,0.31290510296821594,0.9999690055847168],"min":[-0.9999550580978394,-0.9521902203559875,-0.9998230338096619],"type":"VEC3"},{"bufferView":3,"byteOffset":43536,"componentType":5126,"count":2721,"max":[0.9996647238731384,0.9998993277549744,0.9991495013237,1],"min":[-0.9603239893913269,-0.9999605417251587,-0.9995359778404236,-1],"type":"VEC4"},{"bufferView":1,"byteOffset":21768,"componentType":5126,"count":2721,"max":[0.9666540026664734,0.9842337369918823],"min":[0.01647961139678955,0.013750970363616943],"type":"VEC2"},{"bufferView":0,"byteOffset":61440,"componentType":5125,"count":15360,"max":[2720],"min":[0],"type":"SCALAR"},{"bufferView":2,"byteOffset":130608,"componentType":5126,"count":121,"max":[0.5,0,0.5],"min":[-0.5,0,-0.5],"type":"VEC3"},{"bufferView":2,"byteOffset":132060,"componentType":5126,"count":121,"max":[0,1,0],"min":[0,1,0],"type":"VEC3"},{"bufferView":3,"byteOffset":87072,"componentType":5126,"count":121,"max":[1,0,0,1],"min":[1,0,0,1],"type":"VEC4"},{"bufferView":1,"byteOffset":43536,"componentType":5126,"count":121,"max":[1.9898104667663574,0.9891378283500671],"min":[1.0115346908569336,0.010862171649932861],"type":"VEC2"},{"bufferView":0,"byteOffset":122880,"componentType":5125,"count":600,"max":[120],"min":[0],"type":"SCALAR"},{"bufferView":4,"componentType":5126,"count":60,"max":[2],"min":[0.0416666679084301],"type":"SCALAR"},{"bufferView":5,"componentType":5126,"count":60,"max":[0,0,0],"min":[0,-0.06543489545583725,0],"type":"VEC3"},{"bufferView":4,"byteOffset":240,"componentType":5126,"count":60,"max":[2],"min":[0.0416666679084301],"type":"SCALAR"},{"bufferView":5,"byteOffset":720,"componentType":5126,"count":60,"max":[0,0,0],"min":[0,-0.06543489545583725,0],"type":"VEC3"}],"animations":[{"channels":[{"sampler":0,"target":{"node":6,"path":"translation"}},{"sampler":1,"target":{"node":8,"path":"translation"}}],"name":"Take 001","samplers":[{"input":15,"interpolation":"LINEAR","output":16},{"input":17,"interpolation":"LINEAR","output":18}]}],"asset":{"extras":{"author":"taylorc56 (https://sketchfab.com/taylorc56)","license":"CC-BY-NC-4.0 (http://creativecommons.org/licenses/by-nc/4.0/)","source":"https://sketchfab.com/3d-models/inktober-day-22-ghost-1d188a69885f48a68c2c4d8dfd79afbc","title":"Inktober - Day 22 - Ghost"},"generator":"Sketchfab-6.66.0","version":"2.0"},"bufferViews":[{"buffer":0,"byteLength":125280,"byteOffset":0,"name":"floatBufferViews","target":34963},{"buffer":0,"byteLength":44504,"byteOffset":125280,"byteStride":8,"name":"floatBufferViews","target":34962},{"buffer":0,"byteLength":133512,"byteOffset":169784,"byteStride":12,"name":"floatBufferViews","target":34962},{"buffer":0,"byteLength":89008,"byteOffset":303296,"byteStride":16,"name":"floatBufferViews","target":34962},{"buffer":0,"byteLength":480,"byteOffset":392304,"name":"floatBufferViews"},{"buffer":0,"byteLength":1440,"byteOffset":392784,"byteStride":12,"name":"floatBufferViews"}],"buffers":[{"byteLength":394224,"uri":"data:application/octet-stream;base64,"}],"extensionsUsed":["KHR_materials_unlit"],"images":[{"uri":"data:application/octet-stream;base64,"},{"uri":"data:application/octet-stream;base64,"}],"materials":[{"doubleSided":true,"emissiveFactor":[0,0,0],"extensions":{"KHR_materials_unlit":{}},"name":"lambert1","pbrMetallicRoughness":{"baseColorFactor":[1,1,1,1],"baseColorTexture":{"index":0,"texCoord":0},"metallicFactor":0,"roughnessFactor":1}},{"doubleSided":false,"emissiveFactor":[0,0,0],"extensions":{"KHR_materials_unlit":{}},"name":"lambert2","pbrMetallicRoughness":{"baseColorFactor":[0,0,0,1],"metallicFactor":0,"roughnessFactor":1}},{"doubleSided":true,"emissiveFactor":[0,0,0],"extensions":{"KHR_materials_unlit":{}},"name":"lambert3","pbrMetallicRoughness":{"baseColorFactor":[1,1,1,1],"baseColorTexture":{"index":1,"texCoord":0},"metallicFactor":0,"roughnessFactor":1}}],"meshes":[{"name":"polySurface4_lambert1_0","primitives":[{"attributes":{"NORMAL":1,"POSITION":0,"TANGENT":2,"TEXCOORD_0":3},"indices":4,"material":0,"mode":4}]},{"name":"polySurface5_lambert2_0","primitives":[{"attributes":{"NORMAL":6,"POSITION":5,"TANGENT":7,"TEXCOORD_0":8},"indices":9,"material":1,"mode":4}]},{"name":"pPlane1_lambert3_0","primitives":[{"attributes":{"NORMAL":11,"POSITION":10,"TANGENT":12,"TEXCOORD_0":13},"indices":14,"material":2,"mode":4}]}],"nodes":[{"children":[1],"name":"RootNode (gltf orientation matrix)","rotation":[-0.7071067811865475,0,0,0.7071067811865476]},{"children":[2],"name":"RootNode (model correction matrix)"},{"children":[3],"matrix":[1,0,0,0,0,0,1,0,0,-1,0,0,0,0,0,1],"name":"cc9b6255cae045a4af78a6c87ff9861d.fbx"},{"children":[4],"name":""},{"children":[5,10],"name":"RootNode"},{"children":[6,8],"name":"pDisc4","scale":[6.677248001098633,10.583184242248535,8.540124893188477],"translation":[-11.704168319702148,7.802512168884277,0]},{"children":[7],"name":"polySurface4","translation":[0,0.00019959501514676958,0]},{"mesh":0,"name":"polySurface4_lambert1_0"},{"children":[9],"name":"polySurface5","translation":[0,0.00019959501514676958,0]},{"mesh":1,"name":"polySurface5_lambert2_0"},{"children":[11],"name":"pPlane1","scale":[42.74897384643555,1,42.74897384643555],"translation":[-11.78222370147705,-4.433847904205322,0]},{"mesh":2,"name":"pPlane1_lambert3_0"}],"samplers":[{"magFilter":9729,"minFilter":9987,"wrapS":10497,"wrapT":10497}],"scene":0,"scenes":[{"name":"OSG_Scene","nodes":[0]}],"textures":[{"sampler":0,"source":0},{"sampler":0,"source":1}]}